<?xml version="1.0" encoding="UTF-8" standalone="no"?>
<!-- Created with Inkscape (http://www.inkscape.org/) -->

<svg
   width="50mm"
   height="50mm"
   viewBox="0 0 50 49.999998"
   version="1.1"
   id="svg5"
   sodipodi:docname="drawing.svg"
   inkscape:export-filename="cryptum-text-logo.svg"
   inkscape:export-xdpi="96"
   inkscape:export-ydpi="96"
   inkscape:version="1.2.2 (b0a8486541, 2022-12-01)"
   xmlns:inkscape="http://www.inkscape.org/namespaces/inkscape"
   xmlns:sodipodi="http://sodipodi.sourceforge.net/DTD/sodipodi-0.dtd"
   xmlns="http://www.w3.org/2000/svg"
   xmlns:svg="http://www.w3.org/2000/svg"
   xmlns:rdf="http://www.w3.org/1999/02/22-rdf-syntax-ns#"
   xmlns:cc="http://creativecommons.org/ns#">
  <sodipodi:namedview
     id="namedview10"
     pagecolor="#ffffff"
     bordercolor="#000000"
     borderopacity="0.25"
     inkscape:showpageshadow="2"
     inkscape:pageopacity="0.0"
     inkscape:pagecheckerboard="0"
     inkscape:deskcolor="#d1d1d1"
     inkscape:document-units="mm"
     showgrid="false"
     inkscape:zoom="5.572125"
     inkscape:cx="90.629697"
     inkscape:cy="87.489064"
     inkscape:window-width="2560"
     inkscape:window-height="1371"
     inkscape:window-x="0"
     inkscape:window-y="32"
     inkscape:window-maximized="1"
     inkscape:current-layer="layer1" />
  <defs
     id="defs2" />
  <g
     id="layer1"
     transform="translate(0.00193087,0.00258255)">
    <rect
       style="display:inline;fill:#24ae8a;fill-opacity:1;stroke-width:3.38591"
       id="rect251"
       width="49.996136"
       height="49.994835"
       x="1.2715658e-06"
       y="0"
       ry="5.2626138" />
    <rect
       style="fill:#373737;fill-opacity:1;stroke-width:0.222294"
       id="rect4044"
       width="6.945313"
       height="22.224998"
       x="15.081249"
       y="13.295312"
       ry="0.37417734" />
    <rect
       style="fill:#373737;fill-opacity:1;stroke-width:0.264583"
       id="rect6406"
       width="13.229166"
       height="2.9765625"
       x="11.906251"
       y="8.9296875"
       ry="0.37417734" />
    <rect
       style="fill:#373737;fill-opacity:1;stroke-width:0.264583"
       id="rect6408"
       width="13.229166"
       height="2.9765625"
       x="11.90625"
       y="36.710938"
       ry="0.37417734" />
    <rect
       style="fill:#373737;stroke-width:0.575926"
       id="rect3204"
       width="0.93987554"
       height="12.929336"
       x="47.452442"
       y="-2.3082507"
       ry="0.48023245"
       transform="matrix(0.76389886,0.64533597,-0.57896998,0.81534886,-0.00193087,-0.00258255)" />
    <rect
       style="fill:#373737;stroke-width:0.575926"
       id="rect3329"
       width="0.93987554"
       height="12.929336"
       x="53.863148"
       y="-7.3853917"
       ry="0.48023245"
       transform="matrix(0.76389887,0.64533598,-0.57896998,0.81534886,0,0)" />
    <path
       sodipodi:type="star"
       style="display:inline;fill:#373737;stroke-width:0.264583"
       id="path3331"
       inkscape:flatsided="false"
       sodipodi:sides="5"
       sodipodi:cx="140.03497"
       sodipodi:cy="96.698364"
       sodipodi:r1="2.7452826"
       sodipodi:r2="1.3726414"
       sodipodi:arg1="0.5880026"
       sodipodi:arg2="1.2163211"
       inkscape:rounded="0.19"
       inkscape:randomized="0"
       d="m 142.31919,98.221173 c -0.19214,0.288205 -1.48293,-0.355734 -1.80778,-0.235506 -0.32484,0.120227 -0.88538,1.449359 -1.21885,1.355687 -0.33348,-0.09367 -0.11993,-1.520276 -0.33466,-1.792069 -0.21472,-0.271792 -1.65202,-0.394175 -1.66598,-0.740272 -0.014,-0.346098 1.40881,-0.583848 1.60095,-0.872053 0.19213,-0.288205 -0.13562,-1.692973 0.18922,-1.813201 0.32484,-0.120227 0.99062,1.159438 1.32409,1.25311 0.33347,0.09367 1.56821,-0.65214 1.78293,-0.380347 0.21473,0.271793 -0.79657,1.30042 -0.78261,1.646518 0.014,0.346097 1.10482,1.289928 0.91269,1.578133 z"
       transform="matrix(0.53920956,0,0,0.53920956,-34.217105,-23.22098)"
       inkscape:transform-center-x="0.11761663"
       inkscape:transform-center-y="0.017563134" />
    <path
       sodipodi:type="star"
       style="fill:#373737;stroke-width:0.264583"
       id="path3335"
       inkscape:flatsided="false"
       sodipodi:sides="5"
       sodipodi:cx="140.03497"
       sodipodi:cy="96.698364"
       sodipodi:r1="2.7452826"
       sodipodi:r2="1.3726414"
       sodipodi:arg1="0.5880026"
       sodipodi:arg2="1.2163211"
       inkscape:rounded="0.19"
       inkscape:randomized="0"
       d="m 142.31919,98.221173 c -0.19214,0.288205 -1.48293,-0.355734 -1.80778,-0.235506 -0.32484,0.120227 -0.88538,1.449359 -1.21885,1.355687 -0.33348,-0.09367 -0.11993,-1.520276 -0.33466,-1.792069 -0.21472,-0.271792 -1.65202,-0.394175 -1.66598,-0.740272 -0.014,-0.346098 1.40881,-0.583848 1.60095,-0.872053 0.19213,-0.288205 -0.13562,-1.692973 0.18922,-1.813201 0.32484,-0.120227 0.99062,1.159438 1.32409,1.25311 0.33347,0.09367 1.56821,-0.65214 1.78293,-0.380347 0.21473,0.271793 -0.79657,1.30042 -0.78261,1.646518 0.014,0.346097 1.10482,1.289928 0.91269,1.578133 z"
       transform="matrix(0.53920956,0,0,0.53920956,-41.191101,-12.470746)"
       inkscape:transform-center-x="0.11761663"
       inkscape:transform-center-y="0.017563134" />
  </g>
  <metadata
     id="metadata1299">
    <rdf:RDF>
      <cc:Work
         rdf:about="">
        <cc:license
           rdf:resource="http://creativecommons.org/licenses/by/4.0/" />
      </cc:Work>
      <cc:License
         rdf:about="http://creativecommons.org/licenses/by/4.0/">
        <cc:permits
           rdf:resource="http://creativecommons.org/ns#Reproduction" />
        <cc:permits
           rdf:resource="http://creativecommons.org/ns#Distribution" />
        <cc:requires
           rdf:resource="http://creativecommons.org/ns#Notice" />
        <cc:requires
           rdf:resource="http://creativecommons.org/ns#Attribution" />
        <cc:permits
           rdf:resource="http://creativecommons.org/ns#DerivativeWorks" />
      </cc:License>
    </rdf:RDF>
  </metadata>
</svg>
